<?xml version="1.0" encoding="utf-8"?>
<!-- Generator: Adobe Illustrator 19.0.0, SVG Export Plug-In . SVG Version: 6.00 Build 0)  -->
<svg version="1.1" id="Layer_1" xmlns="http://www.w3.org/2000/svg" xmlns:xlink="http://www.w3.org/1999/xlink" x="0px" y="0px"
	 viewBox="0 0 251.5 110.9" style="enable-background:new 0 0 251.5 110.9;" xml:space="preserve">
<style type="text/css">
	.st0{fill:url(#XMLID_98_);}
	.st1{fill:#FFFFFF;}
	.st2{fill:#222322;}
	.st3{font-family:'HacenAlgeria';}
	.st4{font-size:12px;}
</style>
<g id="XMLID_129_">
	<linearGradient id="XMLID_98_" gradientUnits="userSpaceOnUse" x1="159.1814" y1="55.4594" x2="251.5365" y2="55.4594">
		<stop  offset="0" style="stop-color:#D51F36"/>
		<stop  offset="1" style="stop-color:#EE3542"/>
	</linearGradient>
	<path id="XMLID_130_" class="st0" d="M247.9,74.6c0,20.1-19.9,36.3-44.4,36.3c-24.5,0-44.4-16.3-44.4-36.3
		C159.2,54.6,189.5,0,227,0S247.9,54.6,247.9,74.6z"/>
	<g id="XMLID_200_">
		<path id="XMLID_205_" class="st1" d="M200.3,60.2c-2.1-0.6-4.4-0.8-6.9-0.8c-4.4,0-9.6,0.7-15.7,2c-0.2,1.7-0.4,2.9-0.5,3.7
			c-0.1,0.8-0.4,2.2-0.8,4.3c5.4-2.1,9.8-3.1,13.5-3.1c1.3,0,2.3,0.2,3,0.7c0.7,0.4,1,1.1,1,1.9c0,0.3-0.1,0.6-0.2,0.8
			c-0.1,0.3-0.3,0.5-0.5,0.8c-0.2,0.2-0.6,0.5-1,0.6c-0.4,0.2-1,0.4-2,0.6c-0.9,0.2-1.9,0.5-3,0.7c-2.6,0.5-4.8,1-6.6,1.6
			c-1.7,0.6-3.1,1.2-4.1,1.8c-1,0.6-1.9,1.4-2.6,2.3c-0.7,0.9-1.3,1.8-1.6,2.8c-0.3,1-0.5,1.9-0.5,2.9c0,1.6,0.5,3.3,1.4,4.9
			c0.9,1.6,2.3,2.8,4,3.5c1.7,0.7,3.9,1.1,6.6,1.1c1.6,0,3.4-0.1,5.2-0.4c0.8-3.1,1.6-5.5,2.2-7.1c-0.9,0.3-1.6,0.5-2.1,0.6
			c-0.5,0.1-1,0.1-1.4,0.1c-1.2,0-2.2-0.3-2.7-0.8c-0.6-0.5-0.9-1.1-0.9-1.8c0-0.5,0.1-0.9,0.3-1.3c0.2-0.4,0.5-0.8,1-1.1
			c0.5-0.4,1-0.7,1.7-0.9c0.6-0.2,1.5-0.5,2.7-0.9c1.1-0.3,1.9-0.6,2.4-0.8c0.5-0.2,1.1-0.4,1.9-0.8c-0.4,7.3-0.7,12.1-1,14.4
			c2.2,0,4.4-0.1,6.4-0.1c2.1,0,4.1,0,6.2,0.1c0.2-6.7,0.4-12.2,0.7-16.3c0.3-4.1,0.5-6.8,0.5-8c0-2.3-0.6-4.1-1.7-5.4
			C204,61.7,202.4,60.8,200.3,60.2z"/>
		<path id="XMLID_202_" class="st1" d="M230.8,66.5c-0.2-1-0.6-2-1.3-2.9c-0.7-0.9-1.5-1.7-2.4-2.3c-1-0.6-2.2-1.1-3.6-1.4
			s-2.9-0.5-4.5-0.5c-1.1,0-2.2,0.1-3.2,0.2c-1,0.2-1.9,0.4-2.8,0.7c-0.8,0.3-1.5,0.6-2.3,1c-0.3,2.4-0.9,6.5-1.3,9.9
			c0.1-0.1,0.3-0.3,0.4-0.4c1.1-0.8,2.3-1.2,3.5-1.2c1.4,0,2.6,0.5,3.5,1.4c0.9,0.9,1.4,2.6,1.4,5c0,1.5-0.1,4.2-0.3,8
			c-0.2,3.8-0.4,6.7-0.6,8.6c2.1,0,4.4-0.1,6.9-0.1c1.9,0,3.9,0,6,0.1c0-1.9,0.1-4,0.2-6.3l0.5-11.5c0.2-2.7,0.3-4.4,0.3-5.2
			C231.2,68.6,231.1,67.5,230.8,66.5z"/>
	</g>
</g>
<path id="XMLID_58_" class="st2" d="M105.8,60.2c0.1-1.6,0.1-2.8,0.1-3.7c0-0.3,0-0.6,0-1.1c1.6,0,2.9,0,4,0c1.5,0,2.8,0,3.9,0
	c0,0.4-0.1,0.7-0.1,1l-0.1,2.4c0,0.4,0,0.8,0,1.3c-1.3,0-2.5,0-3.7,0C108.5,60.2,107.2,60.2,105.8,60.2z"/>
<path id="XMLID_54_" class="st2" d="M105.8,110.1c0.1-1.6,0.1-2.8,0.1-3.7c0-0.3,0-0.6,0-1.1c1.6,0,2.9,0,4,0c1.5,0,2.8,0,3.9,0
	c0,0.4-0.1,0.7-0.1,1l-0.1,2.4c0,0.4,0,0.8,0,1.3c-1.3,0-2.5,0-3.7,0C108.5,110.1,107.2,110.1,105.8,110.1z"/>
<path id="XMLID_282_" class="st2" d="M56,110.1c0.1-1.6,0.1-2.8,0.1-3.7c0-0.3,0-0.6,0-1.1c1.6,0,2.9,0,4,0c1.5,0,2.8,0,3.9,0
	c0,0.4-0.1,0.7-0.1,1l-0.1,2.4c0,0.4,0,0.8,0,1.3c-1.3,0-2.5,0-3.7,0C58.7,110.1,57.4,110.1,56,110.1z"/>
<path id="XMLID_284_" class="st2" d="M46.3,110.1c0.1-1.6,0.1-2.8,0.1-3.7c0-0.3,0-0.6,0-1.1c1.6,0,2.9,0,4,0c1.5,0,2.8,0,3.9,0
	c0,0.4-0.1,0.7-0.1,1l-0.1,2.4c0,0.4,0,0.8,0,1.3c-1.3,0-2.5,0-3.7,0C49.1,110.1,47.8,110.1,46.3,110.1z"/>
<path id="XMLID_286_" class="st2" d="M11.6,71.9c0.1-1.6,0.1-2.8,0.1-3.7c0-0.3,0-0.6,0-1.1c1.6,0,2.9,0,4,0c1.5,0,2.8,0,3.9,0
	c0,0.4-0.1,0.7-0.1,1l-0.1,2.4c0,0.4,0,0.8,0,1.3c-1.3,0-2.5,0-3.7,0C14.4,71.8,13,71.9,11.6,71.9z"/>
<path id="XMLID_74_" class="st2" d="M2,71.9c0.1-1.6,0.1-2.8,0.1-3.7c0-0.3,0-0.6,0-1.1c1.6,0,2.9,0,4,0c1.5,0,2.8,0,3.9,0
	c0,0.4-0.1,0.7-0.1,1l-0.1,2.4c0,0.4,0,0.8,0,1.3c-1.3,0-2.5,0-3.7,0C4.7,71.8,3.4,71.9,2,71.9z"/>
<path id="XMLID_193_" class="st2" d="M81.4,26.6c0.1-1.6,0.1-2.8,0.1-3.7c0-0.3,0-0.6,0-1.1c1.6,0,2.9,0,4,0c1.5,0,2.8,0,3.9,0
	c0,0.4-0.1,0.7-0.1,1l-0.1,2.4c0,0.4,0,0.8,0,1.3c-1.3,0-2.5,0-3.7,0C84.1,26.5,82.8,26.6,81.4,26.6z"/>
<g id="XMLID_25_">
	<path id="XMLID_42_" class="st2" d="M59.4,28.7v15.4c0,1-0.2,2-0.6,2.9c-0.4,0.9-0.9,1.7-1.6,2.4c-0.8,0.8-1.7,1.4-2.8,1.9
		c-1.1,0.5-2.3,0.7-3.5,0.7h-7.6v-6.2h7.7c0.3-0.1,0.5-0.3,0.7-0.7c0.1-0.3,0.2-0.7,0.2-1.1V28.7H59.4z M58,24.8l-7.5,0.5l-0.2-2.6
		l1.4-0.1c-0.4-0.5-0.6-0.9-0.8-1.2c-0.2-0.3-0.3-0.7-0.4-0.9c0-0.2,0-0.3,0-0.5c0-0.1,0-0.2,0-0.3c0-0.2,0.1-0.5,0.2-0.8
		c0.2-0.4,0.4-0.8,0.7-1.2c0.3-0.3,0.7-0.6,1.2-0.9c0.5-0.2,1-0.4,1.5-0.5c0.5-0.1,1.1-0.2,1.7-0.2c0.5,0,0.9,0,1.1,0.1
		c0.3,0,0.6,0.1,0.8,0.2l-0.4,2.6c-0.6-0.2-1.2-0.3-1.7-0.3c-0.2,0-0.4,0-0.5,0c-0.6,0.1-1,0.4-1.2,0.9c-0.1,0.3-0.2,0.5-0.2,0.8
		c0,0.2,0,0.4,0.1,0.6c0.1,0.5,0.6,1,1.2,1.4l2.9-0.3L58,24.8z"/>
	<path id="XMLID_46_" class="st2" d="M72,19.1v32.5h-7.7V19.1H72z"/>
	<path id="XMLID_55_" class="st2" d="M94.9,27.5c2.7-0.6,4.8-0.9,6.3-0.9c0.2,0,0.5,0,0.7,0c1.7,0.1,3.1,0.4,4.5,0.9
		c1.3,0.5,2.5,1.2,3.5,2.1c1,0.9,1.9,2,2.7,3.2c0.6,0.9,1.1,1.9,1.5,3c0.4,1.1,0.8,2.2,1.1,3.4s0.6,2.4,0.8,3.7s0.4,2.2,0.5,2.9h3.6
		v6.2H91.6v-6.2h17.1c0-0.2-0.2-0.9-0.4-2s-0.4-2.2-0.7-3.2c-0.3-1-0.6-1.9-0.9-2.7c-0.3-0.8-0.7-1.6-1.1-2.3
		c-0.4-0.6-0.8-1-1.2-1.4c-0.4-0.4-0.9-0.7-1.5-0.9c-0.6-0.2-1.2-0.3-1.9-0.4h-0.4c-0.7,0-1.8,0.2-3.3,0.5L94.9,27.5z"/>
	<path id="XMLID_59_" class="st2" d="M132.3,19.1v25c0,1-0.2,2-0.6,2.9c-0.4,0.9-0.9,1.7-1.6,2.4c-0.8,0.8-1.7,1.4-2.8,1.9
		c-1.1,0.5-2.3,0.7-3.5,0.7h-5.1v-6.2h5.2c0,0,0.1-0.1,0.3-0.2c0.2-0.2,0.3-0.4,0.4-0.6c0.1-0.2,0.1-0.5,0.1-0.8v-25H132.3z"/>
	<path id="XMLID_62_" class="st2" d="M144.9,19.1v32.5h-7.7V19.1H144.9z"/>
	<path id="XMLID_64_" class="st2" d="M21.5,93.4c0,1-0.2,2-0.6,2.9c-0.4,0.9-0.9,1.7-1.6,2.4c-0.8,0.8-1.7,1.4-2.8,1.9
		c-1.1,0.5-2.3,0.7-3.6,0.7c-2.4-0.1-4.5-0.4-6.3-1c-1.8-0.6-3.1-1.4-4.1-2.5C1.9,97,1.4,96.3,1,95.5c-0.4-0.8-0.6-1.6-0.8-2.5
		C0.1,92.1,0,91.2,0,90.2v-0.9c0-0.7,0-1.3,0-2c0-1.3,0.2-2.5,0.5-3.6c0.3-1.1,0.7-2.1,1.3-3C2.3,79.8,3,79,3.7,78.4
		c0.7-0.6,1.5-1.2,2.3-1.6c0.8-0.4,1.6-0.7,2.4-0.8c0.8-0.2,1.5-0.2,2.3-0.2h0.2c1.7,0,3.4,0.4,4.9,1.2c0.8,0.4,1.5,0.9,2.2,1.6
		s1.3,1.4,1.8,2.2c0.5,0.8,0.9,1.8,1.2,2.8c0.3,1,0.4,2.2,0.4,3.4V93.4z M7.7,87.3c0,0.6,0,1.1,0,1.6c0,0.2,0,0.5,0,0.7
		c0,0.7,0,1.4,0.1,1.9s0.2,1,0.3,1.4c0.1,0.4,0.3,0.7,0.5,0.9c0.2,0.2,0.4,0.3,0.8,0.5c0.4,0.2,0.9,0.3,1.5,0.4
		c0.3,0,0.5,0.1,0.8,0.1c0.3,0,0.5,0.1,0.7,0.1c0.2,0,0.3,0,0.4-0.1c0.1,0,0.2-0.1,0.3-0.2c0.2-0.2,0.3-0.4,0.4-0.6
		c0.1-0.2,0.1-1.4,0.1-3.8c0-1,0-2.2,0-3.6c0-1.3-0.2-2.4-0.6-3.2c-0.4-0.8-0.9-1.3-1.5-1.6c-0.3-0.1-0.6-0.2-0.8-0.2
		c-0.2,0-0.4,0.1-0.7,0.2c-0.3,0.1-0.6,0.4-0.8,0.6c-0.3,0.3-0.5,0.6-0.7,1.1c-0.2,0.4-0.4,0.9-0.6,1.5C7.8,85.8,7.7,86.5,7.7,87.3z
		"/>
	<path id="XMLID_72_" class="st2" d="M64.8,78v15.4c0,1-0.2,2-0.6,2.9c-0.4,0.9-0.9,1.7-1.6,2.4c-0.8,0.8-1.7,1.4-2.8,1.9
		c-1.1,0.5-2.3,0.7-3.5,0.7h-7.6V95h7.7c0.3-0.1,0.5-0.3,0.7-0.7c0.1-0.3,0.2-0.7,0.2-1.1V78H64.8z"/>
	<path id="XMLID_108_" class="st2" d="M94.9,76.7c2.7-0.6,4.8-0.9,6.3-0.9c0.2,0,0.5,0,0.7,0c1.7,0.1,3.1,0.4,4.5,0.9
		c1.3,0.5,2.5,1.2,3.5,2.1c1,0.9,1.9,2,2.7,3.2c0.6,0.9,1.1,1.9,1.5,3c0.4,1.1,0.8,2.2,1.1,3.4s0.6,2.4,0.8,3.7s0.4,2.2,0.5,2.9h3.6
		v6.2H91.6V95h17.1c0-0.2-0.2-0.9-0.4-2s-0.4-2.2-0.7-3.2c-0.3-1-0.6-1.9-0.9-2.7c-0.3-0.8-0.7-1.6-1.1-2.3c-0.4-0.6-0.8-1-1.2-1.4
		c-0.4-0.4-0.9-0.7-1.5-0.9c-0.6-0.2-1.2-0.3-1.9-0.4h-0.4c-0.7,0-1.8,0.2-3.3,0.5L94.9,76.7z"/>
	<path id="XMLID_111_" class="st2" d="M132.3,68.4v25c0,1-0.2,2-0.6,2.9c-0.4,0.9-0.9,1.7-1.6,2.4c-0.8,0.8-1.7,1.4-2.8,1.9
		c-1.1,0.5-2.3,0.7-3.5,0.7h-5.1V95h5.2c0,0,0.1-0.1,0.3-0.2c0.2-0.2,0.3-0.4,0.4-0.6c0.1-0.2,0.1-0.5,0.1-0.8v-25H132.3z"/>
	<path id="XMLID_121_" class="st2" d="M144.9,68.4v32.5h-7.7V68.4H144.9z"/>
</g>
<g id="XMLID_1_">
	<path id="XMLID_2_" class="st2" d="M89.2,42.9V28.7h-7.7v21.8c0,0.9-0.2,1.7-0.3,2.3c-0.2,0.7-0.3,1.2-0.6,1.6
		c-0.2,0.4-0.5,0.8-0.8,1.1c-0.3,0.3-0.6,0.5-1,0.7c-0.4,0.2-0.9,0.3-1.4,0.4c-0.5,0.1-1.1,0.2-1.7,0.3s-1.3,0.1-2,0.1
		c-0.7,0-1.9,0-3.5,0v6.1c1.8,0,3.2,0,4.2,0s2-0.1,2.9-0.2c1-0.1,1.9-0.3,2.8-0.5c0.9-0.2,1.8-0.6,2.7-1c0.9-0.4,1.7-1,2.4-1.6
		c0.7-0.6,1.4-1.4,1.9-2.3c0.6-0.9,1-1.9,1.3-3c0.1-0.4,0.2-0.7,0.3-1L89.2,42.9z"/>
</g>
<g id="XMLID_7_">
	<path id="XMLID_11_" class="st2" d="M89.4,91.9c0-0.7-0.1-1.4-0.1-2c-0.2-1.9-0.5-3.5-1-5c-0.5-1.4-1.1-2.7-1.8-3.7
		c-0.7-1-1.5-1.9-2.3-2.6c-0.8-0.7-1.7-1.2-2.6-1.6c-0.9-0.4-1.7-0.7-2.6-0.9c-0.8-0.2-1.6-0.3-2.2-0.4c-0.7,0-1.3-0.1-1.7-0.1h-1
		l-2.3,5.9c1.9,0.2,3.2,0.3,3.9,0.4c0.8,0.1,1.4,0.3,2.1,0.6c0.6,0.3,1.2,0.7,1.7,1.2c0.5,0.5,1,1.3,1.3,2.3c0.4,1,0.6,2.3,0.8,4
		c0.1,0.9,0.1,1.9,0.1,2.9c0,1,0,1.7,0,2.1h-12v6.2h19.4L89.4,91.9z"/>
</g>
<g id="XMLID_10_">
	<path id="XMLID_12_" class="st2" d="M46.2,91.3c0-0.5-0.1-1-0.1-1.4c-0.2-1.9-0.5-3.5-1-5c-0.5-1.4-1.1-2.7-1.8-3.7
		c-0.7-1-1.5-1.9-2.3-2.6c-0.8-0.7-1.7-1.2-2.6-1.6c-0.9-0.4-1.7-0.7-2.6-0.9c-0.8-0.2-1.6-0.3-2.2-0.4c-0.7,0-1.3-0.1-1.7-0.1h-1
		l-2.3,5.9c1.9,0.2,3.2,0.3,3.9,0.4c0.8,0.1,1.4,0.3,2.1,0.6c0.6,0.3,1.2,0.7,1.7,1.2c0.5,0.5,1,1.3,1.3,2.3c0.4,1,0.6,2.3,0.8,4
		c0.1,0.9,0.1,1.9,0.1,2.9c0,1,0,1.7,0,2.1h-12v6.2h19.4L46.2,91.3z"/>
</g>
<g id="XMLID_4_">
	<path id="XMLID_8_" class="st2" d="M40.8,45.2V28.7H33v21.8c0,0.9-0.2,1.7-0.3,2.3c-0.2,0.7-0.3,1.2-0.6,1.6
		c-0.2,0.4-0.5,0.8-0.8,1.1c-0.3,0.3-0.6,0.5-1,0.7c-0.4,0.2-0.9,0.3-1.4,0.4c-0.5,0.1-1.1,0.2-1.7,0.3C26.7,57,26,57,25.3,57
		c-0.7,0-1.9,0-3.5,0v6.1c1.8,0,3.2,0,4.2,0s2-0.1,2.9-0.2c1-0.1,1.9-0.3,2.8-0.5c0.9-0.2,1.8-0.6,2.7-1c0.9-0.4,1.7-1,2.4-1.6
		c0.7-0.6,1.4-1.4,1.9-2.3c0.6-0.9,1-1.9,1.3-3c0.1-0.5,0.3-1,0.4-1.4L40.8,45.2z"/>
</g>
<text id="XMLID_5_" transform="matrix(1 0 0 1 0.6086 33.4353)" class="st3 st4">TM</text>
</svg>
